<?xml version="1.0" encoding="UTF-8"?>
<svg id="Layer_1" xmlns="http://www.w3.org/2000/svg" version="1.1" viewBox="0 0 24 24">
  <!-- Generator: Adobe Illustrator 30.0.0, SVG Export Plug-In . SVG Version: 2.1.1 Build 123)  -->
  <defs>
    <style>
      .st0 {
        fill: none;
        stroke: #000;
        stroke-linecap: round;
        stroke-linejoin: round;
        stroke-width: 1.6px;
      }
    </style>
  </defs>
  <path class="st0" d="M4.49,8.71s-.44-3.08-.54-3.59-.58-.91-1.32-.79c-.82.14-.86,1-.82,1.49s.51,4.97.68,6.78c.04.46.22.89.51,1.24l3.58,4.23c.16.19.5.6-.07,1.51"/>
  <path class="st0" d="M6.78,13.7l-1.32-1.72s-.67-1.44-.98-2.11c-.46-1.01.17-1.42.45-1.53.64-.26.91.06,1.18.38.18.2.47.81.66,1.23.13.28.3.53.51.74.89.91,3.3,3.37,3.76,3.82.57.55.94,1.34.96,2.16s0,3.02,0,3.02"/>
  <g>
    <path class="st0" d="M19.51,8.71s.44-3.08.54-3.59.58-.91,1.32-.79c.82.14.86,1,.82,1.49s-.51,4.97-.68,6.78c-.04.46-.22.89-.51,1.24l-3.58,4.23c-.16.19-.5.6.07,1.51"/>
    <path class="st0" d="M17.22,13.7l1.32-1.72s.67-1.44.98-2.11c.46-1.01-.17-1.42-.45-1.53-.64-.26-.91.06-1.18.38-.18.2-.47.81-.66,1.23-.13.28-.3.53-.51.74-.89.91-3.3,3.37-3.76,3.82-.57.55-.94,1.34-.96,2.16s0,3.02,0,3.02"/>
  </g>
</svg>