<?xml version="1.0" encoding="UTF-8"?>
<svg id="Layer_1" xmlns="http://www.w3.org/2000/svg" version="1.1" viewBox="0 0 24 24">
  <!-- Generator: Adobe Illustrator 30.0.0, SVG Export Plug-In . SVG Version: 2.1.1 Build 123)  -->
  <defs>
    <style>
      .st0 {
        fill: none;
        stroke: #000;
        stroke-linecap: round;
        stroke-linejoin: round;
        stroke-width: 2px;
      }
    </style>
  </defs>
  <path class="st0" d="M21.17,6.81c1.1-1.1,1.1-2.89,0-3.99-1.1-1.1-2.89-1.1-3.99,0L3.84,16.17c-.23.23-.4.52-.5.83l-1.32,4.35c-.08.26.07.54.34.62.09.03.19.03.29,0l4.35-1.32c.31-.1.6-.27.83-.5l13.35-13.35Z"/>
  <path class="st0" d="M15,5l4,4"/>
  <line class="st0" x1="18.88" y1="21.73" x2="18.88" y2="21.73"/>
  <path class="st0" d="M16.82,15.79c.41-1.09,1.07-1.61,2.07-1.61s1.8.81,1.8,1.8-.86,1.73-1.8,2.1v1.04"/>
</svg>