<?xml version="1.0" encoding="UTF-8"?>
<svg id="Layer_1" xmlns="http://www.w3.org/2000/svg" version="1.1" viewBox="0 0 24 24">
  <!-- Generator: Adobe Illustrator 30.0.0, SVG Export Plug-In . SVG Version: 2.1.1 Build 123)  -->
  <defs>
    <style>
      .st0 {
        fill: none;
        stroke: #000;
        stroke-linecap: round;
        stroke-linejoin: round;
        stroke-width: 1.8px;
      }
    </style>
  </defs>
  <path class="st0" d="M4.86,3.76h4.4v5.49H3.76v-4.4c0-.61.49-1.1,1.1-1.1Z"/>
  <rect class="st0" x="9.25" y="3.76" width="5.49" height="5.49"/>
  <path class="st0" d="M14.75,3.76h4.4c.61,0,1.1.49,1.1,1.1v4.4h-5.49V3.76h0Z"/>
  <rect class="st0" x="3.76" y="9.25" width="5.49" height="5.49"/>
  <rect class="st0" x="9.25" y="9.25" width="5.49" height="5.49"/>
  <rect class="st0" x="14.75" y="9.25" width="5.49" height="5.49"/>
  <path class="st0" d="M3.76,14.75h5.49v5.49h-4.4c-.61,0-1.1-.49-1.1-1.1v-4.4h0Z"/>
  <rect class="st0" x="9.25" y="14.75" width="5.49" height="5.49"/>
  <path class="st0" d="M14.75,14.75h5.49v4.4c0,.61-.49,1.1-1.1,1.1h-4.4v-5.49h0Z"/>
</svg>